<mxfile host="app.diagrams.net" modified="2020-10-19T14:27:37.051Z" agent="5.0 (X11; Linux x86_64) AppleWebKit/537.36 (KHTML, like Gecko) Chrome/86.0.4240.75 Safari/537.36" etag="PQyeaYZq0OhXBb_y9EeQ" version="13.8.0" type="github" pages="2">
  <diagram id="R2lEEEUBdFMjLlhIrx00" name="entity_relationship_diagram">
    <mxGraphModel dx="1588" dy="911" grid="1" gridSize="10" guides="1" tooltips="1" connect="1" arrows="1" fold="1" page="1" pageScale="1" pageWidth="2336" pageHeight="1654" math="0" shadow="0" extFonts="Permanent Marker^https://fonts.googleapis.com/css?family=Permanent+Marker">
      <root>
        <mxCell id="0" />
        <mxCell id="1" parent="0" />
        <mxCell id="sqilVZkOUBa6XORCe38h-3" value="Staff" style="whiteSpace=wrap;html=1;" parent="1" vertex="1">
          <mxGeometry x="570" y="640" width="120" height="60" as="geometry" />
        </mxCell>
        <mxCell id="sqilVZkOUBa6XORCe38h-30" value="1" style="edgeStyle=orthogonalEdgeStyle;rounded=0;orthogonalLoop=1;jettySize=auto;html=1;endArrow=none;endFill=0;" parent="1" source="sqilVZkOUBa6XORCe38h-4" target="sqilVZkOUBa6XORCe38h-29" edge="1">
          <mxGeometry relative="1" as="geometry" />
        </mxCell>
        <mxCell id="sqilVZkOUBa6XORCe38h-72" value="N" style="edgeStyle=orthogonalEdgeStyle;rounded=0;sketch=0;orthogonalLoop=1;jettySize=auto;html=1;entryX=0;entryY=0.5;entryDx=0;entryDy=0;endArrow=none;endFill=0;" parent="1" source="sqilVZkOUBa6XORCe38h-4" target="sqilVZkOUBa6XORCe38h-54" edge="1">
          <mxGeometry relative="1" as="geometry" />
        </mxCell>
        <mxCell id="sqilVZkOUBa6XORCe38h-4" value="User" style="whiteSpace=wrap;html=1;" parent="1" vertex="1">
          <mxGeometry x="570" y="950" width="120" height="60" as="geometry" />
        </mxCell>
        <mxCell id="sqilVZkOUBa6XORCe38h-5" value="Result" style="whiteSpace=wrap;html=1;" parent="1" vertex="1">
          <mxGeometry x="570" y="1180" width="120" height="60" as="geometry" />
        </mxCell>
        <mxCell id="sqilVZkOUBa6XORCe38h-35" value="" style="edgeStyle=orthogonalEdgeStyle;rounded=0;orthogonalLoop=1;jettySize=auto;html=1;endArrow=none;endFill=0;" parent="1" source="sqilVZkOUBa6XORCe38h-6" target="sqilVZkOUBa6XORCe38h-33" edge="1">
          <mxGeometry relative="1" as="geometry" />
        </mxCell>
        <mxCell id="sqilVZkOUBa6XORCe38h-39" value="1" style="edgeStyle=orthogonalEdgeStyle;rounded=0;orthogonalLoop=1;jettySize=auto;html=1;endArrow=none;endFill=0;" parent="1" source="sqilVZkOUBa6XORCe38h-6" target="sqilVZkOUBa6XORCe38h-33" edge="1">
          <mxGeometry relative="1" as="geometry" />
        </mxCell>
        <mxCell id="sqilVZkOUBa6XORCe38h-6" value="Category" style="whiteSpace=wrap;html=1;" parent="1" vertex="1">
          <mxGeometry x="490" y="390" width="120" height="60" as="geometry" />
        </mxCell>
        <mxCell id="sqilVZkOUBa6XORCe38h-37" value="1" style="edgeStyle=orthogonalEdgeStyle;rounded=0;orthogonalLoop=1;jettySize=auto;html=1;endArrow=none;endFill=0;" parent="1" source="sqilVZkOUBa6XORCe38h-7" target="sqilVZkOUBa6XORCe38h-32" edge="1">
          <mxGeometry relative="1" as="geometry" />
        </mxCell>
        <mxCell id="sqilVZkOUBa6XORCe38h-86" value="N" style="edgeStyle=orthogonalEdgeStyle;rounded=0;sketch=0;orthogonalLoop=1;jettySize=auto;html=1;endArrow=none;endFill=0;" parent="1" source="sqilVZkOUBa6XORCe38h-7" target="sqilVZkOUBa6XORCe38h-55" edge="1">
          <mxGeometry relative="1" as="geometry" />
        </mxCell>
        <mxCell id="sqilVZkOUBa6XORCe38h-7" value="Topic" style="whiteSpace=wrap;html=1;" parent="1" vertex="1">
          <mxGeometry x="800" y="390" width="120" height="60" as="geometry" />
        </mxCell>
        <mxCell id="sqilVZkOUBa6XORCe38h-41" value="" style="edgeStyle=orthogonalEdgeStyle;rounded=0;orthogonalLoop=1;jettySize=auto;html=1;endArrow=none;endFill=0;" parent="1" source="sqilVZkOUBa6XORCe38h-8" target="sqilVZkOUBa6XORCe38h-40" edge="1">
          <mxGeometry relative="1" as="geometry" />
        </mxCell>
        <mxCell id="sqilVZkOUBa6XORCe38h-108" value="1" style="edgeLabel;html=1;align=center;verticalAlign=middle;resizable=0;points=[];" parent="sqilVZkOUBa6XORCe38h-41" vertex="1" connectable="0">
          <mxGeometry x="-0.33" y="-3" relative="1" as="geometry">
            <mxPoint as="offset" />
          </mxGeometry>
        </mxCell>
        <mxCell id="sqilVZkOUBa6XORCe38h-88" value="N" style="edgeStyle=orthogonalEdgeStyle;rounded=0;sketch=0;orthogonalLoop=1;jettySize=auto;html=1;entryX=0.5;entryY=0;entryDx=0;entryDy=0;endArrow=none;endFill=0;" parent="1" source="sqilVZkOUBa6XORCe38h-8" target="sqilVZkOUBa6XORCe38h-56" edge="1">
          <mxGeometry relative="1" as="geometry" />
        </mxCell>
        <mxCell id="sqilVZkOUBa6XORCe38h-8" value="Unit" style="whiteSpace=wrap;html=1;" parent="1" vertex="1">
          <mxGeometry x="1170" y="390" width="120" height="60" as="geometry" />
        </mxCell>
        <mxCell id="sqilVZkOUBa6XORCe38h-45" value="1" style="edgeStyle=orthogonalEdgeStyle;rounded=0;orthogonalLoop=1;jettySize=auto;html=1;endArrow=none;endFill=0;" parent="1" source="sqilVZkOUBa6XORCe38h-10" target="sqilVZkOUBa6XORCe38h-44" edge="1">
          <mxGeometry relative="1" as="geometry" />
        </mxCell>
        <mxCell id="sqilVZkOUBa6XORCe38h-10" value="Theory" style="whiteSpace=wrap;html=1;" parent="1" vertex="1">
          <mxGeometry x="1610" y="370" width="120" height="60" as="geometry" />
        </mxCell>
        <mxCell id="sqilVZkOUBa6XORCe38h-112" value="" style="edgeStyle=orthogonalEdgeStyle;rounded=0;sketch=0;orthogonalLoop=1;jettySize=auto;html=1;endArrow=none;endFill=0;" parent="1" source="sqilVZkOUBa6XORCe38h-11" target="sqilVZkOUBa6XORCe38h-80" edge="1">
          <mxGeometry relative="1" as="geometry" />
        </mxCell>
        <mxCell id="sqilVZkOUBa6XORCe38h-11" value="&lt;div style=&quot;text-align: left&quot;&gt;&lt;font size=&quot;1&quot;&gt;&lt;span style=&quot;background-color: rgb(255 , 255 , 255) ; font-size: 12px&quot;&gt;Quiz&lt;/span&gt;&lt;/font&gt;&lt;/div&gt;" style="whiteSpace=wrap;html=1;" parent="1" vertex="1">
          <mxGeometry x="1610" y="550" width="120" height="60" as="geometry" />
        </mxCell>
        <mxCell id="sqilVZkOUBa6XORCe38h-16" value="VisualObject" style="whiteSpace=wrap;html=1;" parent="1" vertex="1">
          <mxGeometry x="1610" y="170" width="120" height="60" as="geometry" />
        </mxCell>
        <mxCell id="sqilVZkOUBa6XORCe38h-50" style="edgeStyle=orthogonalEdgeStyle;rounded=0;orthogonalLoop=1;jettySize=auto;html=1;entryX=0;entryY=0.75;entryDx=0;entryDy=0;endArrow=none;endFill=0;" parent="1" source="sqilVZkOUBa6XORCe38h-17" target="sqilVZkOUBa6XORCe38h-48" edge="1">
          <mxGeometry relative="1" as="geometry">
            <Array as="points">
              <mxPoint x="860" y="770" />
              <mxPoint x="993" y="770" />
            </Array>
          </mxGeometry>
        </mxCell>
        <mxCell id="sqilVZkOUBa6XORCe38h-17" value="TopicReward" style="whiteSpace=wrap;html=1;" parent="1" vertex="1">
          <mxGeometry x="800" y="650" width="120" height="60" as="geometry" />
        </mxCell>
        <mxCell id="sqilVZkOUBa6XORCe38h-51" style="edgeStyle=orthogonalEdgeStyle;rounded=0;orthogonalLoop=1;jettySize=auto;html=1;endArrow=none;endFill=0;" parent="1" source="sqilVZkOUBa6XORCe38h-18" target="sqilVZkOUBa6XORCe38h-48" edge="1">
          <mxGeometry relative="1" as="geometry" />
        </mxCell>
        <mxCell id="sqilVZkOUBa6XORCe38h-18" value="UnitReward" style="whiteSpace=wrap;html=1;" parent="1" vertex="1">
          <mxGeometry x="950" y="650" width="120" height="60" as="geometry" />
        </mxCell>
        <mxCell id="sqilVZkOUBa6XORCe38h-19" value="Reward" style="whiteSpace=wrap;html=1;" parent="1" vertex="1">
          <mxGeometry x="950" y="950" width="120" height="60" as="geometry" />
        </mxCell>
        <mxCell id="sqilVZkOUBa6XORCe38h-52" style="edgeStyle=orthogonalEdgeStyle;rounded=0;orthogonalLoop=1;jettySize=auto;html=1;entryX=0.333;entryY=0.202;entryDx=0;entryDy=0;entryPerimeter=0;endArrow=none;endFill=0;" parent="1" source="sqilVZkOUBa6XORCe38h-20" target="sqilVZkOUBa6XORCe38h-48" edge="1">
          <mxGeometry relative="1" as="geometry">
            <Array as="points">
              <mxPoint x="1180" y="770" />
              <mxPoint x="1031" y="770" />
            </Array>
          </mxGeometry>
        </mxCell>
        <mxCell id="sqilVZkOUBa6XORCe38h-97" value="N" style="edgeStyle=orthogonalEdgeStyle;rounded=0;sketch=0;orthogonalLoop=1;jettySize=auto;html=1;entryX=0;entryY=0.5;entryDx=0;entryDy=0;endArrow=none;endFill=0;" parent="1" source="sqilVZkOUBa6XORCe38h-20" target="sqilVZkOUBa6XORCe38h-57" edge="1">
          <mxGeometry relative="1" as="geometry" />
        </mxCell>
        <mxCell id="sqilVZkOUBa6XORCe38h-20" value="&lt;span style=&quot;text-align: left ; background-color: rgb(255 , 255 , 255)&quot;&gt;QuizReward&lt;/span&gt;" style="whiteSpace=wrap;html=1;" parent="1" vertex="1">
          <mxGeometry x="1120" y="650" width="120" height="60" as="geometry" />
        </mxCell>
        <mxCell id="sqilVZkOUBa6XORCe38h-98" value="1" style="edgeStyle=orthogonalEdgeStyle;rounded=0;sketch=0;orthogonalLoop=1;jettySize=auto;html=1;endArrow=none;endFill=0;" parent="1" source="sqilVZkOUBa6XORCe38h-21" target="sqilVZkOUBa6XORCe38h-58" edge="1">
          <mxGeometry relative="1" as="geometry" />
        </mxCell>
        <mxCell id="sqilVZkOUBa6XORCe38h-113" style="edgeStyle=orthogonalEdgeStyle;rounded=0;sketch=0;orthogonalLoop=1;jettySize=auto;html=1;entryX=0;entryY=0.25;entryDx=0;entryDy=0;endArrow=none;endFill=0;" parent="1" source="sqilVZkOUBa6XORCe38h-21" target="sqilVZkOUBa6XORCe38h-80" edge="1">
          <mxGeometry relative="1" as="geometry">
            <Array as="points">
              <mxPoint x="1450" y="810" />
              <mxPoint x="1653" y="810" />
            </Array>
          </mxGeometry>
        </mxCell>
        <mxCell id="sqilVZkOUBa6XORCe38h-21" value="DragAndDropQuiz" style="whiteSpace=wrap;html=1;" parent="1" vertex="1">
          <mxGeometry x="1390" y="850" width="120" height="60" as="geometry" />
        </mxCell>
        <mxCell id="sqilVZkOUBa6XORCe38h-93" value="" style="edgeStyle=orthogonalEdgeStyle;rounded=0;sketch=0;orthogonalLoop=1;jettySize=auto;html=1;endArrow=none;endFill=0;" parent="1" source="sqilVZkOUBa6XORCe38h-22" target="sqilVZkOUBa6XORCe38h-80" edge="1">
          <mxGeometry relative="1" as="geometry" />
        </mxCell>
        <mxCell id="sqilVZkOUBa6XORCe38h-100" value="1" style="edgeStyle=orthogonalEdgeStyle;rounded=0;sketch=0;orthogonalLoop=1;jettySize=auto;html=1;endArrow=none;endFill=0;" parent="1" source="sqilVZkOUBa6XORCe38h-22" target="sqilVZkOUBa6XORCe38h-59" edge="1">
          <mxGeometry relative="1" as="geometry" />
        </mxCell>
        <mxCell id="sqilVZkOUBa6XORCe38h-22" value="MatchThePairQuiz" style="whiteSpace=wrap;html=1;" parent="1" vertex="1">
          <mxGeometry x="1610" y="850" width="120" height="60" as="geometry" />
        </mxCell>
        <mxCell id="sqilVZkOUBa6XORCe38h-91" style="edgeStyle=orthogonalEdgeStyle;rounded=0;sketch=0;orthogonalLoop=1;jettySize=auto;html=1;entryX=0;entryY=0.75;entryDx=0;entryDy=0;endArrow=none;endFill=0;" parent="1" source="sqilVZkOUBa6XORCe38h-23" target="sqilVZkOUBa6XORCe38h-80" edge="1">
          <mxGeometry relative="1" as="geometry">
            <Array as="points">
              <mxPoint x="1890" y="810" />
              <mxPoint x="1688" y="810" />
            </Array>
          </mxGeometry>
        </mxCell>
        <mxCell id="sqilVZkOUBa6XORCe38h-102" value="1" style="edgeStyle=orthogonalEdgeStyle;rounded=0;sketch=0;orthogonalLoop=1;jettySize=auto;html=1;endArrow=none;endFill=0;" parent="1" source="sqilVZkOUBa6XORCe38h-23" target="sqilVZkOUBa6XORCe38h-60" edge="1">
          <mxGeometry relative="1" as="geometry" />
        </mxCell>
        <mxCell id="sqilVZkOUBa6XORCe38h-23" value="MCQuiz" style="whiteSpace=wrap;html=1;" parent="1" vertex="1">
          <mxGeometry x="1830" y="850" width="120" height="60" as="geometry" />
        </mxCell>
        <mxCell id="sqilVZkOUBa6XORCe38h-114" style="edgeStyle=orthogonalEdgeStyle;rounded=0;sketch=0;orthogonalLoop=1;jettySize=auto;html=1;entryX=0.5;entryY=1;entryDx=0;entryDy=0;endArrow=none;endFill=0;" parent="1" source="sqilVZkOUBa6XORCe38h-24" target="sqilVZkOUBa6XORCe38h-67" edge="1">
          <mxGeometry relative="1" as="geometry">
            <Array as="points">
              <mxPoint x="1450" y="1195" />
            </Array>
          </mxGeometry>
        </mxCell>
        <mxCell id="sqilVZkOUBa6XORCe38h-24" value="Blank&lt;span style=&quot;text-align: left ; background-color: rgb(255 , 255 , 255)&quot;&gt;QuizPart&lt;/span&gt;" style="whiteSpace=wrap;html=1;" parent="1" vertex="1">
          <mxGeometry x="1390" y="1050" width="120" height="60" as="geometry" />
        </mxCell>
        <mxCell id="sqilVZkOUBa6XORCe38h-105" value="" style="edgeStyle=orthogonalEdgeStyle;rounded=0;sketch=0;orthogonalLoop=1;jettySize=auto;html=1;endArrow=none;endFill=0;" parent="1" source="sqilVZkOUBa6XORCe38h-25" target="sqilVZkOUBa6XORCe38h-67" edge="1">
          <mxGeometry relative="1" as="geometry" />
        </mxCell>
        <mxCell id="sqilVZkOUBa6XORCe38h-25" value="Pair&lt;span style=&quot;text-align: left ; background-color: rgb(255 , 255 , 255)&quot;&gt;QuizPart&lt;/span&gt;" style="whiteSpace=wrap;html=1;" parent="1" vertex="1">
          <mxGeometry x="1610" y="1050" width="120" height="60" as="geometry" />
        </mxCell>
        <mxCell id="sqilVZkOUBa6XORCe38h-106" style="edgeStyle=orthogonalEdgeStyle;rounded=0;sketch=0;orthogonalLoop=1;jettySize=auto;html=1;entryX=0.5;entryY=0;entryDx=0;entryDy=0;endArrow=none;endFill=0;" parent="1" source="sqilVZkOUBa6XORCe38h-26" target="sqilVZkOUBa6XORCe38h-67" edge="1">
          <mxGeometry relative="1" as="geometry">
            <Array as="points">
              <mxPoint x="1890" y="1195" />
            </Array>
          </mxGeometry>
        </mxCell>
        <mxCell id="sqilVZkOUBa6XORCe38h-26" value="MC&lt;span style=&quot;text-align: left ; background-color: rgb(255 , 255 , 255)&quot;&gt;QuizPart&lt;/span&gt;" style="whiteSpace=wrap;html=1;" parent="1" vertex="1">
          <mxGeometry x="1830" y="1050" width="120" height="60" as="geometry" />
        </mxCell>
        <mxCell id="sqilVZkOUBa6XORCe38h-27" value="&lt;span style=&quot;text-align: left ; background-color: rgb(255 , 255 , 255)&quot;&gt;QuizPart&lt;/span&gt;" style="whiteSpace=wrap;html=1;" parent="1" vertex="1">
          <mxGeometry x="1610" y="1260" width="120" height="60" as="geometry" />
        </mxCell>
        <mxCell id="sqilVZkOUBa6XORCe38h-31" value="1" style="edgeStyle=orthogonalEdgeStyle;rounded=0;orthogonalLoop=1;jettySize=auto;html=1;endArrow=none;endFill=0;" parent="1" source="sqilVZkOUBa6XORCe38h-29" target="sqilVZkOUBa6XORCe38h-5" edge="1">
          <mxGeometry relative="1" as="geometry" />
        </mxCell>
        <mxCell id="sqilVZkOUBa6XORCe38h-29" value="Has" style="shape=rhombus;perimeter=rhombusPerimeter;whiteSpace=wrap;html=1;align=center;" parent="1" vertex="1">
          <mxGeometry x="570" y="1070" width="120" height="60" as="geometry" />
        </mxCell>
        <mxCell id="sqilVZkOUBa6XORCe38h-38" value="N" style="edgeStyle=orthogonalEdgeStyle;rounded=0;orthogonalLoop=1;jettySize=auto;html=1;endArrow=none;endFill=0;" parent="1" source="sqilVZkOUBa6XORCe38h-32" target="sqilVZkOUBa6XORCe38h-8" edge="1">
          <mxGeometry relative="1" as="geometry" />
        </mxCell>
        <mxCell id="sqilVZkOUBa6XORCe38h-32" value="Has" style="shape=rhombus;perimeter=rhombusPerimeter;whiteSpace=wrap;html=1;align=center;" parent="1" vertex="1">
          <mxGeometry x="970" y="390" width="120" height="60" as="geometry" />
        </mxCell>
        <mxCell id="sqilVZkOUBa6XORCe38h-36" value="N" style="edgeStyle=orthogonalEdgeStyle;rounded=0;orthogonalLoop=1;jettySize=auto;html=1;endArrow=none;endFill=0;" parent="1" source="sqilVZkOUBa6XORCe38h-33" target="sqilVZkOUBa6XORCe38h-7" edge="1">
          <mxGeometry relative="1" as="geometry" />
        </mxCell>
        <mxCell id="sqilVZkOUBa6XORCe38h-33" value="Has" style="shape=rhombus;perimeter=rhombusPerimeter;whiteSpace=wrap;html=1;align=center;" parent="1" vertex="1">
          <mxGeometry x="650" y="390" width="120" height="60" as="geometry" />
        </mxCell>
        <mxCell id="sqilVZkOUBa6XORCe38h-42" value="" style="edgeStyle=orthogonalEdgeStyle;rounded=0;orthogonalLoop=1;jettySize=auto;html=1;endArrow=none;endFill=0;" parent="1" source="sqilVZkOUBa6XORCe38h-40" target="sqilVZkOUBa6XORCe38h-11" edge="1">
          <mxGeometry relative="1" as="geometry">
            <Array as="points">
              <mxPoint x="1540" y="540" />
              <mxPoint x="1540" y="580" />
            </Array>
          </mxGeometry>
        </mxCell>
        <mxCell id="sqilVZkOUBa6XORCe38h-110" value="N" style="edgeLabel;html=1;align=center;verticalAlign=middle;resizable=0;points=[];" parent="sqilVZkOUBa6XORCe38h-42" vertex="1" connectable="0">
          <mxGeometry x="0.2667" y="-3" relative="1" as="geometry">
            <mxPoint as="offset" />
          </mxGeometry>
        </mxCell>
        <mxCell id="sqilVZkOUBa6XORCe38h-43" style="edgeStyle=orthogonalEdgeStyle;rounded=0;orthogonalLoop=1;jettySize=auto;html=1;endArrow=none;endFill=0;" parent="1" source="sqilVZkOUBa6XORCe38h-40" target="sqilVZkOUBa6XORCe38h-10" edge="1">
          <mxGeometry relative="1" as="geometry">
            <Array as="points">
              <mxPoint x="1540" y="540" />
              <mxPoint x="1540" y="470" />
            </Array>
          </mxGeometry>
        </mxCell>
        <mxCell id="sqilVZkOUBa6XORCe38h-109" value="N" style="edgeLabel;html=1;align=center;verticalAlign=middle;resizable=0;points=[];" parent="sqilVZkOUBa6XORCe38h-43" vertex="1" connectable="0">
          <mxGeometry x="0.2615" y="-5" relative="1" as="geometry">
            <mxPoint as="offset" />
          </mxGeometry>
        </mxCell>
        <mxCell id="sqilVZkOUBa6XORCe38h-40" value="Has" style="shape=rhombus;perimeter=rhombusPerimeter;whiteSpace=wrap;html=1;align=center;" parent="1" vertex="1">
          <mxGeometry x="1340" y="510" width="120" height="60" as="geometry" />
        </mxCell>
        <mxCell id="sqilVZkOUBa6XORCe38h-46" value="N" style="edgeStyle=orthogonalEdgeStyle;rounded=0;orthogonalLoop=1;jettySize=auto;html=1;endArrow=none;endFill=0;" parent="1" source="sqilVZkOUBa6XORCe38h-44" target="sqilVZkOUBa6XORCe38h-16" edge="1">
          <mxGeometry relative="1" as="geometry" />
        </mxCell>
        <mxCell id="sqilVZkOUBa6XORCe38h-44" value="Has" style="shape=rhombus;perimeter=rhombusPerimeter;whiteSpace=wrap;html=1;align=center;" parent="1" vertex="1">
          <mxGeometry x="1610" y="270" width="120" height="60" as="geometry" />
        </mxCell>
        <mxCell id="sqilVZkOUBa6XORCe38h-96" style="edgeStyle=orthogonalEdgeStyle;rounded=0;sketch=0;orthogonalLoop=1;jettySize=auto;html=1;entryX=0.5;entryY=0;entryDx=0;entryDy=0;endArrow=none;endFill=0;" parent="1" source="sqilVZkOUBa6XORCe38h-48" target="sqilVZkOUBa6XORCe38h-19" edge="1">
          <mxGeometry relative="1" as="geometry" />
        </mxCell>
        <mxCell id="sqilVZkOUBa6XORCe38h-48" value="IsA" style="triangle;whiteSpace=wrap;html=1;rotation=91;sketch=0;labelPosition=center;verticalLabelPosition=middle;align=center;verticalAlign=middle;horizontal=0;" parent="1" vertex="1">
          <mxGeometry x="985" y="810" width="50" height="70" as="geometry" />
        </mxCell>
        <mxCell id="sqilVZkOUBa6XORCe38h-73" value="N" style="edgeStyle=orthogonalEdgeStyle;rounded=0;sketch=0;orthogonalLoop=1;jettySize=auto;html=1;endArrow=none;endFill=0;" parent="1" source="sqilVZkOUBa6XORCe38h-54" target="sqilVZkOUBa6XORCe38h-19" edge="1">
          <mxGeometry relative="1" as="geometry" />
        </mxCell>
        <mxCell id="sqilVZkOUBa6XORCe38h-54" value="Has" style="shape=rhombus;perimeter=rhombusPerimeter;whiteSpace=wrap;html=1;align=center;" parent="1" vertex="1">
          <mxGeometry x="760" y="950" width="120" height="60" as="geometry" />
        </mxCell>
        <mxCell id="sqilVZkOUBa6XORCe38h-85" value="N" style="edgeStyle=orthogonalEdgeStyle;rounded=0;sketch=0;orthogonalLoop=1;jettySize=auto;html=1;endArrow=none;endFill=0;" parent="1" source="sqilVZkOUBa6XORCe38h-55" target="sqilVZkOUBa6XORCe38h-17" edge="1">
          <mxGeometry relative="1" as="geometry" />
        </mxCell>
        <mxCell id="sqilVZkOUBa6XORCe38h-55" value="Has" style="shape=rhombus;perimeter=rhombusPerimeter;whiteSpace=wrap;html=1;align=center;" parent="1" vertex="1">
          <mxGeometry x="800" y="510" width="120" height="60" as="geometry" />
        </mxCell>
        <mxCell id="sqilVZkOUBa6XORCe38h-89" value="N" style="edgeStyle=orthogonalEdgeStyle;rounded=0;sketch=0;orthogonalLoop=1;jettySize=auto;html=1;endArrow=none;endFill=0;" parent="1" source="sqilVZkOUBa6XORCe38h-56" target="sqilVZkOUBa6XORCe38h-18" edge="1">
          <mxGeometry relative="1" as="geometry" />
        </mxCell>
        <mxCell id="sqilVZkOUBa6XORCe38h-56" value="Has" style="shape=rhombus;perimeter=rhombusPerimeter;whiteSpace=wrap;html=1;align=center;" parent="1" vertex="1">
          <mxGeometry x="1170" y="530" width="120" height="60" as="geometry" />
        </mxCell>
        <mxCell id="sqilVZkOUBa6XORCe38h-94" value="N" style="edgeStyle=orthogonalEdgeStyle;rounded=0;sketch=0;orthogonalLoop=1;jettySize=auto;html=1;entryX=0.25;entryY=1;entryDx=0;entryDy=0;endArrow=none;endFill=0;" parent="1" source="sqilVZkOUBa6XORCe38h-57" target="sqilVZkOUBa6XORCe38h-11" edge="1">
          <mxGeometry relative="1" as="geometry" />
        </mxCell>
        <mxCell id="sqilVZkOUBa6XORCe38h-57" value="Has" style="shape=rhombus;perimeter=rhombusPerimeter;whiteSpace=wrap;html=1;align=center;" parent="1" vertex="1">
          <mxGeometry x="1330" y="650" width="120" height="60" as="geometry" />
        </mxCell>
        <mxCell id="sqilVZkOUBa6XORCe38h-99" value="N" style="edgeStyle=orthogonalEdgeStyle;rounded=0;sketch=0;orthogonalLoop=1;jettySize=auto;html=1;endArrow=none;endFill=0;" parent="1" source="sqilVZkOUBa6XORCe38h-58" target="sqilVZkOUBa6XORCe38h-24" edge="1">
          <mxGeometry relative="1" as="geometry" />
        </mxCell>
        <mxCell id="sqilVZkOUBa6XORCe38h-58" value="Has" style="shape=rhombus;perimeter=rhombusPerimeter;whiteSpace=wrap;html=1;align=center;" parent="1" vertex="1">
          <mxGeometry x="1390" y="940" width="120" height="60" as="geometry" />
        </mxCell>
        <mxCell id="sqilVZkOUBa6XORCe38h-101" value="N" style="edgeStyle=orthogonalEdgeStyle;rounded=0;sketch=0;orthogonalLoop=1;jettySize=auto;html=1;endArrow=none;endFill=0;" parent="1" source="sqilVZkOUBa6XORCe38h-59" target="sqilVZkOUBa6XORCe38h-25" edge="1">
          <mxGeometry relative="1" as="geometry" />
        </mxCell>
        <mxCell id="sqilVZkOUBa6XORCe38h-59" value="Has" style="shape=rhombus;perimeter=rhombusPerimeter;whiteSpace=wrap;html=1;align=center;" parent="1" vertex="1">
          <mxGeometry x="1610" y="950" width="120" height="60" as="geometry" />
        </mxCell>
        <mxCell id="sqilVZkOUBa6XORCe38h-103" value="N" style="edgeStyle=orthogonalEdgeStyle;rounded=0;sketch=0;orthogonalLoop=1;jettySize=auto;html=1;endArrow=none;endFill=0;" parent="1" source="sqilVZkOUBa6XORCe38h-60" target="sqilVZkOUBa6XORCe38h-26" edge="1">
          <mxGeometry relative="1" as="geometry" />
        </mxCell>
        <mxCell id="sqilVZkOUBa6XORCe38h-60" value="Has" style="shape=rhombus;perimeter=rhombusPerimeter;whiteSpace=wrap;html=1;align=center;" parent="1" vertex="1">
          <mxGeometry x="1830" y="960" width="120" height="60" as="geometry" />
        </mxCell>
        <mxCell id="sqilVZkOUBa6XORCe38h-107" value="" style="edgeStyle=orthogonalEdgeStyle;rounded=0;sketch=0;orthogonalLoop=1;jettySize=auto;html=1;endArrow=none;endFill=0;" parent="1" source="sqilVZkOUBa6XORCe38h-67" target="sqilVZkOUBa6XORCe38h-27" edge="1">
          <mxGeometry relative="1" as="geometry" />
        </mxCell>
        <mxCell id="sqilVZkOUBa6XORCe38h-67" value="IsA" style="triangle;whiteSpace=wrap;html=1;rotation=91;sketch=0;labelPosition=center;verticalLabelPosition=middle;align=center;verticalAlign=middle;horizontal=0;" parent="1" vertex="1">
          <mxGeometry x="1645.0009794914056" y="1159.9970266042146" width="50" height="70" as="geometry" />
        </mxCell>
        <mxCell id="sqilVZkOUBa6XORCe38h-80" value="IsA" style="triangle;whiteSpace=wrap;html=1;rotation=-90;sketch=0;labelPosition=center;verticalLabelPosition=middle;align=center;verticalAlign=middle;horizontal=1;" parent="1" vertex="1">
          <mxGeometry x="1645.0009794914056" y="689.9970266042147" width="50" height="70" as="geometry" />
        </mxCell>
        <mxCell id="sqilVZkOUBa6XORCe38h-111" style="edgeStyle=orthogonalEdgeStyle;rounded=0;sketch=0;orthogonalLoop=1;jettySize=auto;html=1;exitX=0;exitY=0.5;exitDx=0;exitDy=0;endArrow=none;endFill=0;" parent="1" source="sqilVZkOUBa6XORCe38h-80" target="sqilVZkOUBa6XORCe38h-80" edge="1">
          <mxGeometry relative="1" as="geometry" />
        </mxCell>
        <mxCell id="sqilVZkOUBa6XORCe38h-117" value="" style="edgeStyle=orthogonalEdgeStyle;rounded=0;sketch=0;orthogonalLoop=1;jettySize=auto;html=1;endArrow=none;endFill=0;" parent="1" source="sqilVZkOUBa6XORCe38h-115" target="sqilVZkOUBa6XORCe38h-24" edge="1">
          <mxGeometry relative="1" as="geometry" />
        </mxCell>
        <mxCell id="sqilVZkOUBa6XORCe38h-115" value="wrong answer" style="ellipse;whiteSpace=wrap;html=1;align=center;sketch=0;" parent="1" vertex="1">
          <mxGeometry x="1220" y="1030" width="100" height="40" as="geometry" />
        </mxCell>
        <mxCell id="sqilVZkOUBa6XORCe38h-118" style="edgeStyle=orthogonalEdgeStyle;rounded=0;sketch=0;orthogonalLoop=1;jettySize=auto;html=1;entryX=0;entryY=0.5;entryDx=0;entryDy=0;endArrow=none;endFill=0;" parent="1" source="sqilVZkOUBa6XORCe38h-116" target="sqilVZkOUBa6XORCe38h-24" edge="1">
          <mxGeometry relative="1" as="geometry" />
        </mxCell>
        <mxCell id="sqilVZkOUBa6XORCe38h-116" value="isHidden" style="ellipse;whiteSpace=wrap;html=1;align=center;sketch=0;" parent="1" vertex="1">
          <mxGeometry x="1220" y="1090" width="100" height="40" as="geometry" />
        </mxCell>
        <mxCell id="sqilVZkOUBa6XORCe38h-120" style="edgeStyle=orthogonalEdgeStyle;rounded=0;sketch=0;orthogonalLoop=1;jettySize=auto;html=1;entryX=0;entryY=0.5;entryDx=0;entryDy=0;endArrow=none;endFill=0;" parent="1" source="sqilVZkOUBa6XORCe38h-119" target="sqilVZkOUBa6XORCe38h-25" edge="1">
          <mxGeometry relative="1" as="geometry" />
        </mxCell>
        <mxCell id="sqilVZkOUBa6XORCe38h-119" value="pairContent" style="ellipse;whiteSpace=wrap;html=1;align=center;sketch=0;" parent="1" vertex="1">
          <mxGeometry x="1510" y="1120" width="100" height="40" as="geometry" />
        </mxCell>
        <mxCell id="sqilVZkOUBa6XORCe38h-122" value="" style="edgeStyle=orthogonalEdgeStyle;rounded=0;sketch=0;orthogonalLoop=1;jettySize=auto;html=1;endArrow=none;endFill=0;" parent="1" source="sqilVZkOUBa6XORCe38h-121" target="sqilVZkOUBa6XORCe38h-26" edge="1">
          <mxGeometry relative="1" as="geometry" />
        </mxCell>
        <mxCell id="sqilVZkOUBa6XORCe38h-121" value="correctness" style="ellipse;whiteSpace=wrap;html=1;align=center;sketch=0;" parent="1" vertex="1">
          <mxGeometry x="1980" y="1060" width="100" height="40" as="geometry" />
        </mxCell>
        <mxCell id="sqilVZkOUBa6XORCe38h-125" value="" style="edgeStyle=orthogonalEdgeStyle;rounded=0;sketch=0;orthogonalLoop=1;jettySize=auto;html=1;endArrow=none;endFill=0;" parent="1" source="sqilVZkOUBa6XORCe38h-123" target="sqilVZkOUBa6XORCe38h-27" edge="1">
          <mxGeometry relative="1" as="geometry" />
        </mxCell>
        <mxCell id="sqilVZkOUBa6XORCe38h-123" value="content" style="ellipse;whiteSpace=wrap;html=1;align=center;sketch=0;" parent="1" vertex="1">
          <mxGeometry x="1530" y="1380" width="100" height="40" as="geometry" />
        </mxCell>
        <mxCell id="sqilVZkOUBa6XORCe38h-126" value="" style="edgeStyle=orthogonalEdgeStyle;rounded=0;sketch=0;orthogonalLoop=1;jettySize=auto;html=1;endArrow=none;endFill=0;" parent="1" source="sqilVZkOUBa6XORCe38h-124" target="sqilVZkOUBa6XORCe38h-27" edge="1">
          <mxGeometry relative="1" as="geometry" />
        </mxCell>
        <mxCell id="sqilVZkOUBa6XORCe38h-124" value="media" style="ellipse;shape=doubleEllipse;margin=3;whiteSpace=wrap;html=1;align=center;sketch=0;" parent="1" vertex="1">
          <mxGeometry x="1710" y="1380" width="100" height="40" as="geometry" />
        </mxCell>
        <mxCell id="sqilVZkOUBa6XORCe38h-149" style="edgeStyle=orthogonalEdgeStyle;rounded=0;sketch=0;orthogonalLoop=1;jettySize=auto;html=1;entryX=1;entryY=0.5;entryDx=0;entryDy=0;endArrow=none;endFill=0;" parent="1" source="sqilVZkOUBa6XORCe38h-127" target="sqilVZkOUBa6XORCe38h-11" edge="1">
          <mxGeometry relative="1" as="geometry" />
        </mxCell>
        <mxCell id="sqilVZkOUBa6XORCe38h-127" value="question" style="ellipse;whiteSpace=wrap;html=1;align=center;sketch=0;" parent="1" vertex="1">
          <mxGeometry x="1790" y="480" width="100" height="40" as="geometry" />
        </mxCell>
        <mxCell id="sqilVZkOUBa6XORCe38h-145" value="" style="edgeStyle=orthogonalEdgeStyle;rounded=0;sketch=0;orthogonalLoop=1;jettySize=auto;html=1;endArrow=none;endFill=0;" parent="1" source="sqilVZkOUBa6XORCe38h-129" target="sqilVZkOUBa6XORCe38h-10" edge="1">
          <mxGeometry relative="1" as="geometry" />
        </mxCell>
        <mxCell id="sqilVZkOUBa6XORCe38h-129" value="hint" style="ellipse;whiteSpace=wrap;html=1;align=center;sketch=0;" parent="1" vertex="1">
          <mxGeometry x="1790" y="350" width="100" height="40" as="geometry" />
        </mxCell>
        <mxCell id="sqilVZkOUBa6XORCe38h-147" style="edgeStyle=orthogonalEdgeStyle;rounded=0;sketch=0;orthogonalLoop=1;jettySize=auto;html=1;entryX=1;entryY=0.5;entryDx=0;entryDy=0;endArrow=none;endFill=0;" parent="1" source="sqilVZkOUBa6XORCe38h-130" target="sqilVZkOUBa6XORCe38h-10" edge="1">
          <mxGeometry relative="1" as="geometry" />
        </mxCell>
        <mxCell id="sqilVZkOUBa6XORCe38h-130" value="title" style="ellipse;whiteSpace=wrap;html=1;align=center;sketch=0;" parent="1" vertex="1">
          <mxGeometry x="1790" y="300" width="100" height="40" as="geometry" />
        </mxCell>
        <mxCell id="sqilVZkOUBa6XORCe38h-146" value="" style="edgeStyle=orthogonalEdgeStyle;rounded=0;sketch=0;orthogonalLoop=1;jettySize=auto;html=1;endArrow=none;endFill=0;" parent="1" source="sqilVZkOUBa6XORCe38h-131" target="sqilVZkOUBa6XORCe38h-10" edge="1">
          <mxGeometry relative="1" as="geometry" />
        </mxCell>
        <mxCell id="sqilVZkOUBa6XORCe38h-131" value="condition" style="ellipse;whiteSpace=wrap;html=1;align=center;sketch=0;" parent="1" vertex="1">
          <mxGeometry x="1790" y="410" width="100" height="40" as="geometry" />
        </mxCell>
        <mxCell id="sqilVZkOUBa6XORCe38h-153" style="edgeStyle=orthogonalEdgeStyle;rounded=0;sketch=0;orthogonalLoop=1;jettySize=auto;html=1;entryX=1;entryY=0.5;entryDx=0;entryDy=0;endArrow=none;endFill=0;" parent="1" source="sqilVZkOUBa6XORCe38h-132" target="sqilVZkOUBa6XORCe38h-11" edge="1">
          <mxGeometry relative="1" as="geometry" />
        </mxCell>
        <mxCell id="sqilVZkOUBa6XORCe38h-132" value="score" style="ellipse;whiteSpace=wrap;html=1;align=center;sketch=0;" parent="1" vertex="1">
          <mxGeometry x="1790" y="680" width="100" height="40" as="geometry" />
        </mxCell>
        <mxCell id="sqilVZkOUBa6XORCe38h-152" style="edgeStyle=orthogonalEdgeStyle;rounded=0;sketch=0;orthogonalLoop=1;jettySize=auto;html=1;entryX=1;entryY=0.5;entryDx=0;entryDy=0;endArrow=none;endFill=0;" parent="1" source="sqilVZkOUBa6XORCe38h-133" target="sqilVZkOUBa6XORCe38h-11" edge="1">
          <mxGeometry relative="1" as="geometry" />
        </mxCell>
        <mxCell id="sqilVZkOUBa6XORCe38h-133" value="type" style="ellipse;whiteSpace=wrap;html=1;align=center;sketch=0;" parent="1" vertex="1">
          <mxGeometry x="1790" y="630" width="100" height="40" as="geometry" />
        </mxCell>
        <mxCell id="sqilVZkOUBa6XORCe38h-150" style="edgeStyle=orthogonalEdgeStyle;rounded=0;sketch=0;orthogonalLoop=1;jettySize=auto;html=1;endArrow=none;endFill=0;" parent="1" source="sqilVZkOUBa6XORCe38h-135" target="sqilVZkOUBa6XORCe38h-11" edge="1">
          <mxGeometry relative="1" as="geometry" />
        </mxCell>
        <mxCell id="sqilVZkOUBa6XORCe38h-135" value="hint" style="ellipse;whiteSpace=wrap;html=1;align=center;sketch=0;" parent="1" vertex="1">
          <mxGeometry x="1790" y="530" width="100" height="40" as="geometry" />
        </mxCell>
        <mxCell id="sqilVZkOUBa6XORCe38h-166" style="edgeStyle=orthogonalEdgeStyle;rounded=0;sketch=0;orthogonalLoop=1;jettySize=auto;html=1;endArrow=none;endFill=0;" parent="1" source="sqilVZkOUBa6XORCe38h-138" target="sqilVZkOUBa6XORCe38h-5" edge="1">
          <mxGeometry relative="1" as="geometry">
            <Array as="points">
              <mxPoint x="440" y="1270" />
              <mxPoint x="630" y="1270" />
            </Array>
          </mxGeometry>
        </mxCell>
        <mxCell id="sqilVZkOUBa6XORCe38h-138" value="star" style="ellipse;whiteSpace=wrap;html=1;align=center;sketch=0;" parent="1" vertex="1">
          <mxGeometry x="380" y="1300" width="100" height="40" as="geometry" />
        </mxCell>
        <mxCell id="sqilVZkOUBa6XORCe38h-161" value="" style="edgeStyle=orthogonalEdgeStyle;rounded=0;sketch=0;orthogonalLoop=1;jettySize=auto;html=1;endArrow=none;endFill=0;" parent="1" source="sqilVZkOUBa6XORCe38h-159" target="sqilVZkOUBa6XORCe38h-5" edge="1">
          <mxGeometry relative="1" as="geometry" />
        </mxCell>
        <mxCell id="sqilVZkOUBa6XORCe38h-159" value="score" style="ellipse;shape=doubleEllipse;margin=3;whiteSpace=wrap;html=1;align=center;sketch=0;" parent="1" vertex="1">
          <mxGeometry x="390" y="1190" width="100" height="40" as="geometry" />
        </mxCell>
        <mxCell id="sqilVZkOUBa6XORCe38h-162" value="" style="edgeStyle=orthogonalEdgeStyle;rounded=0;sketch=0;orthogonalLoop=1;jettySize=auto;html=1;endArrow=none;endFill=0;" parent="1" source="sqilVZkOUBa6XORCe38h-160" target="sqilVZkOUBa6XORCe38h-5" edge="1">
          <mxGeometry relative="1" as="geometry" />
        </mxCell>
        <mxCell id="sqilVZkOUBa6XORCe38h-160" value="unitId" style="ellipse;shape=doubleEllipse;margin=3;whiteSpace=wrap;html=1;align=center;sketch=0;" parent="1" vertex="1">
          <mxGeometry x="760" y="1190" width="100" height="40" as="geometry" />
        </mxCell>
        <mxCell id="sqilVZkOUBa6XORCe38h-168" value="" style="edgeStyle=orthogonalEdgeStyle;rounded=0;sketch=0;orthogonalLoop=1;jettySize=auto;html=1;endArrow=none;endFill=0;" parent="1" source="sqilVZkOUBa6XORCe38h-163" target="sqilVZkOUBa6XORCe38h-5" edge="1">
          <mxGeometry relative="1" as="geometry" />
        </mxCell>
        <mxCell id="sqilVZkOUBa6XORCe38h-163" value="topicId" style="ellipse;shape=doubleEllipse;margin=3;whiteSpace=wrap;html=1;align=center;sketch=0;" parent="1" vertex="1">
          <mxGeometry x="520" y="1300" width="100" height="40" as="geometry" />
        </mxCell>
        <mxCell id="sqilVZkOUBa6XORCe38h-167" style="edgeStyle=orthogonalEdgeStyle;rounded=0;sketch=0;orthogonalLoop=1;jettySize=auto;html=1;endArrow=none;endFill=0;" parent="1" source="sqilVZkOUBa6XORCe38h-165" target="sqilVZkOUBa6XORCe38h-5" edge="1">
          <mxGeometry relative="1" as="geometry">
            <Array as="points">
              <mxPoint x="810" y="1270" />
              <mxPoint x="630" y="1270" />
            </Array>
          </mxGeometry>
        </mxCell>
        <mxCell id="sqilVZkOUBa6XORCe38h-165" value="theoryId" style="ellipse;shape=doubleEllipse;margin=3;whiteSpace=wrap;html=1;align=center;sketch=0;" parent="1" vertex="1">
          <mxGeometry x="780" y="1300" width="100" height="40" as="geometry" />
        </mxCell>
        <mxCell id="sqilVZkOUBa6XORCe38h-170" style="edgeStyle=orthogonalEdgeStyle;rounded=0;sketch=0;orthogonalLoop=1;jettySize=auto;html=1;entryX=0.5;entryY=1;entryDx=0;entryDy=0;endArrow=none;endFill=0;" parent="1" source="sqilVZkOUBa6XORCe38h-169" target="sqilVZkOUBa6XORCe38h-5" edge="1">
          <mxGeometry relative="1" as="geometry" />
        </mxCell>
        <mxCell id="sqilVZkOUBa6XORCe38h-169" value="quizId" style="ellipse;shape=doubleEllipse;margin=3;whiteSpace=wrap;html=1;align=center;sketch=0;" parent="1" vertex="1">
          <mxGeometry x="650" y="1300" width="100" height="40" as="geometry" />
        </mxCell>
        <mxCell id="sqilVZkOUBa6XORCe38h-175" style="edgeStyle=orthogonalEdgeStyle;rounded=0;sketch=0;orthogonalLoop=1;jettySize=auto;html=1;endArrow=none;endFill=0;" parent="1" source="sqilVZkOUBa6XORCe38h-171" target="sqilVZkOUBa6XORCe38h-10" edge="1">
          <mxGeometry relative="1" as="geometry" />
        </mxCell>
        <mxCell id="sqilVZkOUBa6XORCe38h-171" value="media" style="ellipse;shape=doubleEllipse;margin=3;whiteSpace=wrap;html=1;align=center;sketch=0;" parent="1" vertex="1">
          <mxGeometry x="1460" y="350" width="100" height="40" as="geometry" />
        </mxCell>
        <mxCell id="sqilVZkOUBa6XORCe38h-174" value="" style="edgeStyle=orthogonalEdgeStyle;rounded=0;sketch=0;orthogonalLoop=1;jettySize=auto;html=1;endArrow=none;endFill=0;" parent="1" source="sqilVZkOUBa6XORCe38h-172" target="sqilVZkOUBa6XORCe38h-10" edge="1">
          <mxGeometry relative="1" as="geometry" />
        </mxCell>
        <mxCell id="sqilVZkOUBa6XORCe38h-172" value="tag" style="ellipse;shape=doubleEllipse;margin=3;whiteSpace=wrap;html=1;align=center;sketch=0;" parent="1" vertex="1">
          <mxGeometry x="1460" y="410" width="100" height="40" as="geometry" />
        </mxCell>
        <mxCell id="sqilVZkOUBa6XORCe38h-177" value="" style="edgeStyle=orthogonalEdgeStyle;rounded=0;sketch=0;orthogonalLoop=1;jettySize=auto;html=1;endArrow=none;endFill=0;" parent="1" source="sqilVZkOUBa6XORCe38h-176" target="sqilVZkOUBa6XORCe38h-11" edge="1">
          <mxGeometry relative="1" as="geometry" />
        </mxCell>
        <mxCell id="sqilVZkOUBa6XORCe38h-176" value="score" style="ellipse;shape=doubleEllipse;margin=3;whiteSpace=wrap;html=1;align=center;sketch=0;" parent="1" vertex="1">
          <mxGeometry x="1790" y="580" width="100" height="40" as="geometry" />
        </mxCell>
        <mxCell id="VrMR2QW4i0s32aLND5Tw-13" style="edgeStyle=orthogonalEdgeStyle;rounded=0;orthogonalLoop=1;jettySize=auto;html=1;entryX=0;entryY=0.5;entryDx=0;entryDy=0;" edge="1" parent="1" source="VrMR2QW4i0s32aLND5Tw-1" target="sqilVZkOUBa6XORCe38h-3">
          <mxGeometry relative="1" as="geometry" />
        </mxCell>
        <mxCell id="VrMR2QW4i0s32aLND5Tw-1" value="email" style="ellipse;whiteSpace=wrap;html=1;align=center;" vertex="1" parent="1">
          <mxGeometry x="410" y="600" width="100" height="40" as="geometry" />
        </mxCell>
        <mxCell id="VrMR2QW4i0s32aLND5Tw-12" style="edgeStyle=orthogonalEdgeStyle;rounded=0;orthogonalLoop=1;jettySize=auto;html=1;entryX=0;entryY=0.5;entryDx=0;entryDy=0;" edge="1" parent="1" source="VrMR2QW4i0s32aLND5Tw-2" target="sqilVZkOUBa6XORCe38h-3">
          <mxGeometry relative="1" as="geometry" />
        </mxCell>
        <mxCell id="VrMR2QW4i0s32aLND5Tw-2" value="roll" style="ellipse;whiteSpace=wrap;html=1;align=center;" vertex="1" parent="1">
          <mxGeometry x="410" y="760" width="100" height="40" as="geometry" />
        </mxCell>
        <mxCell id="VrMR2QW4i0s32aLND5Tw-14" style="edgeStyle=orthogonalEdgeStyle;rounded=0;orthogonalLoop=1;jettySize=auto;html=1;entryX=0;entryY=0.5;entryDx=0;entryDy=0;" edge="1" parent="1" source="VrMR2QW4i0s32aLND5Tw-3" target="sqilVZkOUBa6XORCe38h-3">
          <mxGeometry relative="1" as="geometry" />
        </mxCell>
        <mxCell id="VrMR2QW4i0s32aLND5Tw-3" value="id" style="ellipse;whiteSpace=wrap;html=1;align=center;" vertex="1" parent="1">
          <mxGeometry x="410" y="550" width="100" height="40" as="geometry" />
        </mxCell>
        <mxCell id="VrMR2QW4i0s32aLND5Tw-11" style="edgeStyle=orthogonalEdgeStyle;rounded=0;orthogonalLoop=1;jettySize=auto;html=1;entryX=0;entryY=0.5;entryDx=0;entryDy=0;" edge="1" parent="1" source="VrMR2QW4i0s32aLND5Tw-4" target="sqilVZkOUBa6XORCe38h-3">
          <mxGeometry relative="1" as="geometry" />
        </mxCell>
        <mxCell id="VrMR2QW4i0s32aLND5Tw-4" value="fullName" style="ellipse;whiteSpace=wrap;html=1;align=center;" vertex="1" parent="1">
          <mxGeometry x="410" y="705" width="100" height="40" as="geometry" />
        </mxCell>
        <mxCell id="VrMR2QW4i0s32aLND5Tw-10" style="edgeStyle=orthogonalEdgeStyle;rounded=0;orthogonalLoop=1;jettySize=auto;html=1;" edge="1" parent="1" source="VrMR2QW4i0s32aLND5Tw-5" target="sqilVZkOUBa6XORCe38h-3">
          <mxGeometry relative="1" as="geometry" />
        </mxCell>
        <mxCell id="VrMR2QW4i0s32aLND5Tw-5" value="password" style="ellipse;whiteSpace=wrap;html=1;align=center;" vertex="1" parent="1">
          <mxGeometry x="410" y="650" width="100" height="40" as="geometry" />
        </mxCell>
        <mxCell id="VrMR2QW4i0s32aLND5Tw-18" style="edgeStyle=orthogonalEdgeStyle;rounded=0;orthogonalLoop=1;jettySize=auto;html=1;entryX=0;entryY=0.5;entryDx=0;entryDy=0;" edge="1" parent="1" source="VrMR2QW4i0s32aLND5Tw-15" target="sqilVZkOUBa6XORCe38h-4">
          <mxGeometry relative="1" as="geometry" />
        </mxCell>
        <mxCell id="VrMR2QW4i0s32aLND5Tw-15" value="id" style="ellipse;whiteSpace=wrap;html=1;align=center;" vertex="1" parent="1">
          <mxGeometry x="350" y="827" width="100" height="40" as="geometry" />
        </mxCell>
        <mxCell id="VrMR2QW4i0s32aLND5Tw-19" style="edgeStyle=orthogonalEdgeStyle;rounded=0;orthogonalLoop=1;jettySize=auto;html=1;" edge="1" parent="1" source="VrMR2QW4i0s32aLND5Tw-16">
          <mxGeometry relative="1" as="geometry">
            <mxPoint x="570" y="980" as="targetPoint" />
            <Array as="points">
              <mxPoint x="510" y="897" />
              <mxPoint x="510" y="980" />
            </Array>
          </mxGeometry>
        </mxCell>
        <mxCell id="VrMR2QW4i0s32aLND5Tw-16" value="email" style="ellipse;whiteSpace=wrap;html=1;align=center;" vertex="1" parent="1">
          <mxGeometry x="350" y="877" width="100" height="40" as="geometry" />
        </mxCell>
        <mxCell id="VrMR2QW4i0s32aLND5Tw-20" style="edgeStyle=orthogonalEdgeStyle;rounded=0;orthogonalLoop=1;jettySize=auto;html=1;entryX=0;entryY=0.5;entryDx=0;entryDy=0;" edge="1" parent="1" source="VrMR2QW4i0s32aLND5Tw-17" target="sqilVZkOUBa6XORCe38h-4">
          <mxGeometry relative="1" as="geometry" />
        </mxCell>
        <mxCell id="VrMR2QW4i0s32aLND5Tw-17" value="password" style="ellipse;whiteSpace=wrap;html=1;align=center;" vertex="1" parent="1">
          <mxGeometry x="350" y="927" width="100" height="40" as="geometry" />
        </mxCell>
        <mxCell id="VrMR2QW4i0s32aLND5Tw-23" value="" style="edgeStyle=orthogonalEdgeStyle;rounded=0;orthogonalLoop=1;jettySize=auto;html=1;" edge="1" parent="1" source="VrMR2QW4i0s32aLND5Tw-21" target="sqilVZkOUBa6XORCe38h-4">
          <mxGeometry relative="1" as="geometry" />
        </mxCell>
        <mxCell id="VrMR2QW4i0s32aLND5Tw-21" value="name" style="ellipse;whiteSpace=wrap;html=1;align=center;" vertex="1" parent="1">
          <mxGeometry x="350" y="977" width="100" height="40" as="geometry" />
        </mxCell>
        <mxCell id="VrMR2QW4i0s32aLND5Tw-24" style="edgeStyle=orthogonalEdgeStyle;rounded=0;orthogonalLoop=1;jettySize=auto;html=1;entryX=0;entryY=0.5;entryDx=0;entryDy=0;" edge="1" parent="1" source="VrMR2QW4i0s32aLND5Tw-22" target="sqilVZkOUBa6XORCe38h-4">
          <mxGeometry relative="1" as="geometry" />
        </mxCell>
        <mxCell id="VrMR2QW4i0s32aLND5Tw-22" value="gender" style="ellipse;whiteSpace=wrap;html=1;align=center;" vertex="1" parent="1">
          <mxGeometry x="350" y="1027" width="100" height="40" as="geometry" />
        </mxCell>
        <mxCell id="VrMR2QW4i0s32aLND5Tw-27" style="edgeStyle=orthogonalEdgeStyle;rounded=0;orthogonalLoop=1;jettySize=auto;html=1;entryX=0;entryY=0.5;entryDx=0;entryDy=0;" edge="1" parent="1" source="VrMR2QW4i0s32aLND5Tw-25" target="sqilVZkOUBa6XORCe38h-4">
          <mxGeometry relative="1" as="geometry" />
        </mxCell>
        <mxCell id="VrMR2QW4i0s32aLND5Tw-25" value="age" style="ellipse;whiteSpace=wrap;html=1;align=center;" vertex="1" parent="1">
          <mxGeometry x="350" y="1077" width="100" height="40" as="geometry" />
        </mxCell>
        <mxCell id="VrMR2QW4i0s32aLND5Tw-32" value="" style="edgeStyle=orthogonalEdgeStyle;rounded=0;orthogonalLoop=1;jettySize=auto;html=1;" edge="1" parent="1" source="VrMR2QW4i0s32aLND5Tw-29" target="sqilVZkOUBa6XORCe38h-4">
          <mxGeometry relative="1" as="geometry" />
        </mxCell>
        <mxCell id="VrMR2QW4i0s32aLND5Tw-29" value="googleId" style="ellipse;whiteSpace=wrap;html=1;align=center;" vertex="1" parent="1">
          <mxGeometry x="530" y="827" width="100" height="40" as="geometry" />
        </mxCell>
        <mxCell id="VrMR2QW4i0s32aLND5Tw-33" style="edgeStyle=orthogonalEdgeStyle;rounded=0;orthogonalLoop=1;jettySize=auto;html=1;" edge="1" parent="1" source="VrMR2QW4i0s32aLND5Tw-30" target="sqilVZkOUBa6XORCe38h-4">
          <mxGeometry relative="1" as="geometry" />
        </mxCell>
        <mxCell id="VrMR2QW4i0s32aLND5Tw-30" value="facebookId" style="ellipse;whiteSpace=wrap;html=1;align=center;" vertex="1" parent="1">
          <mxGeometry x="640" y="827" width="100" height="40" as="geometry" />
        </mxCell>
      </root>
    </mxGraphModel>
  </diagram>
  <diagram id="emaZTt5aKfjCyuURjbja" name="database">
    <mxGraphModel dx="1350" dy="774" grid="1" gridSize="10" guides="1" tooltips="1" connect="1" arrows="1" fold="1" page="1" pageScale="1" pageWidth="2336" pageHeight="1654" math="0" shadow="0">
      <root>
        <mxCell id="CAgPdD3r6Qo_LRn0eVRV-0" />
        <mxCell id="CAgPdD3r6Qo_LRn0eVRV-1" parent="CAgPdD3r6Qo_LRn0eVRV-0" />
      </root>
    </mxGraphModel>
  </diagram>
</mxfile>
